<svg width="768" height="185" viewBox="0 0 768 185" fill="none" xmlns="http://www.w3.org/2000/svg">
<path d="M152.696 151C150.499 151 149.4 149.901 149.4 147.704V46.1904C149.4 43.9932 150.499 42.8945 152.696 42.8945H158.995C161.192 42.8945 162.291 43.9932 162.291 46.1904V78.7832C162.291 80.2969 162.242 81.7861 162.145 83.251H162.291C164.977 80.0283 168.004 77.4893 171.373 75.6338C174.742 73.7783 179.234 72.8506 184.85 72.8506C194.615 72.8506 202.037 76.8545 207.115 84.8623C212.193 92.8213 214.732 102.05 214.732 112.548C214.732 123.046 212.193 132.299 207.115 140.307C202.037 148.266 194.615 152.245 184.85 152.245C179.234 152.245 174.742 151.317 171.373 149.462C168.004 147.606 164.977 145.067 162.291 141.845H162.145L161.705 147.704C161.559 149.901 160.606 151 158.849 151H152.696ZM162.291 120.971C162.291 128.295 164.024 133.764 167.491 137.377C171.007 140.941 175.401 142.724 180.675 142.724C188.097 142.724 193.346 139.94 196.422 134.374C199.547 128.808 201.109 121.532 201.109 112.548C201.109 103.563 199.547 96.2881 196.422 90.7217C193.346 85.1553 188.097 82.3721 180.675 82.3721C175.401 82.3721 171.007 84.1787 167.491 87.792C164.024 91.3564 162.291 96.8008 162.291 104.125V120.971ZM222.007 112.548C222.007 100.438 225.034 90.7949 231.089 83.6172C237.144 76.4395 245.811 72.8506 257.09 72.8506C266.465 72.8506 274.229 76.1465 280.381 82.7383C286.582 89.2812 289.683 99.7549 289.683 114.159C289.683 116.356 288.682 117.455 286.68 117.455H235.63C236.46 126.879 238.999 133.446 243.247 137.157C247.495 140.819 252.305 142.65 257.676 142.65C263.34 142.65 267.686 141.698 270.713 139.794C273.74 137.89 275.962 136.01 277.378 134.154C278.94 132.104 280.454 131.713 281.919 132.982L286.24 136.718C287.363 137.694 287.363 139.037 286.24 140.746C285.312 142.162 282.651 144.433 278.257 147.558C273.911 150.683 267.051 152.245 257.676 152.245C245.469 152.245 236.46 148.656 230.649 141.479C224.888 134.301 222.007 124.657 222.007 112.548ZM235.337 107.934H276.719C276.523 101.098 274.766 95.1162 271.445 89.9893C268.125 84.8135 263.242 82.2256 256.797 82.2256C251.133 82.2256 246.323 84.1299 242.368 87.9385C238.413 91.6982 236.069 98.3633 235.337 107.934ZM298.349 143.822C296.835 142.406 296.518 141.088 297.396 139.867L300.692 135.253C301.767 133.788 303.354 133.861 305.453 135.473C308.334 137.67 311.532 139.428 315.048 140.746C318.612 142.064 322.665 142.724 327.206 142.724C329.892 142.724 332.284 142.406 334.384 141.771C336.483 141.088 338.314 139.843 339.877 138.036C341.488 136.229 342.294 133.812 342.294 130.785C342.294 129.027 341.903 127.367 341.122 125.805C340.39 124.242 339.218 122.997 337.606 122.069C336.044 121.093 334.506 120.336 332.992 119.799C330.502 118.871 328.012 118.114 325.521 117.528C323.08 116.894 319.857 115.941 315.854 114.672C313.168 113.842 310.629 112.67 308.236 111.156C305.844 109.594 303.744 107.494 301.938 104.857C300.18 102.221 299.301 98.583 299.301 93.9443C299.301 89.208 300.741 85.1309 303.622 81.7129C306.503 78.2949 310.116 75.9756 314.462 74.7549C318.808 73.4854 323.031 72.8506 327.133 72.8506C333.188 72.8506 338.046 73.5586 341.708 74.9746C345.419 76.3418 348.617 77.9775 351.303 79.8818C352.865 81.0049 353.085 82.2988 351.962 83.7637L348.666 88.1582C347.641 89.5742 346.054 89.5254 343.905 88.0117C342.099 86.7422 339.535 85.5459 336.215 84.4229C332.895 83.2998 329.989 82.7383 327.499 82.7383C324.423 82.7383 321.786 83.0801 319.589 83.7637C317.392 84.4473 315.609 85.6191 314.242 87.2793C312.875 88.9395 312.191 90.8926 312.191 93.1387C312.191 94.8477 312.46 96.3857 312.997 97.7529C313.534 99.0713 314.535 100.292 316 101.415C317.465 102.538 319.516 103.441 322.152 104.125C326.254 105.199 329.989 106.176 333.358 107.055C336.776 107.934 339.853 109.008 342.587 110.277C346.151 111.938 348.886 113.769 350.79 115.771C352.743 117.772 354.086 119.945 354.818 122.289C355.551 124.584 355.917 127.147 355.917 129.979C355.917 135.204 354.354 139.623 351.229 143.236C348.153 146.85 344.711 149.267 340.902 150.487C337.094 151.659 332.504 152.245 327.133 152.245C319.857 152.245 313.607 151.22 308.383 149.169C303.207 147.069 299.862 145.287 298.349 143.822ZM361.507 83.7637C359.31 83.7637 358.211 82.9092 358.211 81.2002V76.6592C358.211 74.9502 359.31 74.0957 361.507 74.0957H370.149V67.5039C370.149 66.5273 370.394 65.5996 370.882 64.7207L376.009 55.4189C376.937 53.71 377.693 52.8555 378.279 52.8555H380.843C382.308 52.8555 383.04 53.71 383.04 55.4189V74.0957H398.641C400.838 74.0957 401.937 74.9502 401.937 76.6592V81.2002C401.937 82.9092 400.838 83.7637 398.641 83.7637H383.04V130.419C383.04 135.546 383.797 138.891 385.311 140.453C386.873 141.967 388.729 142.724 390.877 142.724C392.537 142.724 394.515 142.235 396.81 141.259C399.153 140.282 400.765 139.452 401.644 138.769C402.522 138.085 403.206 138.305 403.694 139.428L406.111 145.067C406.502 146.044 406.209 146.825 405.232 147.411C403.328 148.534 400.545 149.633 396.883 150.707C393.221 151.732 389.559 152.245 385.896 152.245C380.818 152.245 376.912 150.414 374.178 146.752C371.492 143.09 370.149 137.914 370.149 131.225V83.7637H361.507ZM412.507 143.822C410.993 142.406 410.676 141.088 411.555 139.867L414.851 135.253C415.925 133.788 417.512 133.861 419.611 135.473C422.492 137.67 425.69 139.428 429.206 140.746C432.771 142.064 436.823 142.724 441.364 142.724C444.05 142.724 446.442 142.406 448.542 141.771C450.642 141.088 452.473 139.843 454.035 138.036C455.646 136.229 456.452 133.812 456.452 130.785C456.452 129.027 456.062 127.367 455.28 125.805C454.548 124.242 453.376 122.997 451.765 122.069C450.202 121.093 448.664 120.336 447.15 119.799C444.66 118.871 442.17 118.114 439.68 117.528C437.238 116.894 434.016 115.941 430.012 114.672C427.326 113.842 424.787 112.67 422.395 111.156C420.002 109.594 417.902 107.494 416.096 104.857C414.338 102.221 413.459 98.583 413.459 93.9443C413.459 89.208 414.899 85.1309 417.78 81.7129C420.661 78.2949 424.274 75.9756 428.62 74.7549C432.966 73.4854 437.189 72.8506 441.291 72.8506C447.346 72.8506 452.204 73.5586 455.866 74.9746C459.577 76.3418 462.775 77.9775 465.461 79.8818C467.023 81.0049 467.243 82.2988 466.12 83.7637L462.824 88.1582C461.799 89.5742 460.212 89.5254 458.063 88.0117C456.257 86.7422 453.693 85.5459 450.373 84.4229C447.053 83.2998 444.147 82.7383 441.657 82.7383C438.581 82.7383 435.944 83.0801 433.747 83.7637C431.55 84.4473 429.768 85.6191 428.4 87.2793C427.033 88.9395 426.35 90.8926 426.35 93.1387C426.35 94.8477 426.618 96.3857 427.155 97.7529C427.692 99.0713 428.693 100.292 430.158 101.415C431.623 102.538 433.674 103.441 436.311 104.125C440.412 105.199 444.147 106.176 447.517 107.055C450.935 107.934 454.011 109.008 456.745 110.277C460.31 111.938 463.044 113.769 464.948 115.771C466.901 117.772 468.244 119.945 468.977 122.289C469.709 124.584 470.075 127.147 470.075 129.979C470.075 135.204 468.513 139.623 465.388 143.236C462.312 146.85 458.869 149.267 455.061 150.487C451.252 151.659 446.662 152.245 441.291 152.245C434.016 152.245 427.766 151.22 422.541 149.169C417.365 147.069 414.021 145.287 412.507 143.822ZM475.226 112.548C475.226 100.438 478.253 90.7949 484.308 83.6172C490.362 76.4395 499.029 72.8506 510.309 72.8506C519.684 72.8506 527.447 76.1465 533.6 82.7383C539.801 89.2812 542.901 99.7549 542.901 114.159C542.901 116.356 541.9 117.455 539.898 117.455H488.849C489.679 126.879 492.218 133.446 496.466 137.157C500.714 140.819 505.523 142.65 510.895 142.65C516.559 142.65 520.904 141.698 523.932 139.794C526.959 137.89 529.181 136.01 530.597 134.154C532.159 132.104 533.673 131.713 535.138 132.982L539.459 136.718C540.582 137.694 540.582 139.037 539.459 140.746C538.531 142.162 535.87 144.433 531.476 147.558C527.13 150.683 520.27 152.245 510.895 152.245C498.688 152.245 489.679 148.656 483.868 141.479C478.106 134.301 475.226 124.657 475.226 112.548ZM488.556 107.934H529.938C529.742 101.098 527.984 95.1162 524.664 89.9893C521.344 84.8135 516.461 82.2256 510.016 82.2256C504.352 82.2256 499.542 84.1299 495.587 87.9385C491.632 91.6982 489.288 98.3633 488.556 107.934ZM550.396 130.492C550.396 121.801 554.448 115.429 562.554 111.376C570.708 107.323 582.866 104.955 599.028 104.271V99.291C599.028 94.7012 597.979 90.7461 595.879 87.4258C593.828 84.0566 589.727 82.3721 583.574 82.3721C579.668 82.3721 576.543 82.7627 574.199 83.5439C571.855 84.2764 569.707 85.2773 567.754 86.5469C565.85 87.7676 564.019 89.3545 562.261 91.3076C560.942 92.7725 559.697 92.8457 558.525 91.5273L554.717 87.1328C553.643 85.9121 554.009 84.4473 555.815 82.7383C558.403 80.2969 560.918 78.4658 563.359 77.2451C565.801 76.0244 568.828 74.999 572.441 74.1689C576.104 73.29 579.814 72.8506 583.574 72.8506C593.779 72.8506 601.055 75.4873 605.4 80.7607C609.746 85.9854 611.919 93.1631 611.919 102.294V147.704C611.919 149.901 610.82 151 608.623 151H602.031C600.127 151 599.175 149.901 599.175 147.704V144.115H599.028C595.171 147.143 591.387 149.267 587.676 150.487C584.014 151.659 579.912 152.245 575.371 152.245C567.363 152.245 561.187 150.341 556.841 146.532C552.544 142.675 550.396 137.328 550.396 130.492ZM563.726 130.785C563.726 133.812 564.36 136.254 565.63 138.109C566.899 139.916 568.657 141.088 570.903 141.625C573.149 142.113 575.493 142.357 577.935 142.357C581.694 142.357 585.259 141.991 588.628 141.259C591.997 140.526 595.464 138.598 599.028 135.473V113.866C589.165 114.599 582.134 115.502 577.935 116.576C573.735 117.602 570.317 119.408 567.681 121.996C565.044 124.535 563.726 127.465 563.726 130.785ZM623.808 83.7637C621.61 83.7637 620.512 82.9092 620.512 81.2002V76.6592C620.512 74.9502 621.61 74.0957 623.808 74.0957H632.45V67.5039C632.45 66.5273 632.694 65.5996 633.183 64.7207L638.31 55.4189C639.237 53.71 639.994 52.8555 640.58 52.8555H643.144C644.608 52.8555 645.341 53.71 645.341 55.4189V74.0957H660.941C663.139 74.0957 664.237 74.9502 664.237 76.6592V81.2002C664.237 82.9092 663.139 83.7637 660.941 83.7637H645.341V130.419C645.341 135.546 646.098 138.891 647.611 140.453C649.174 141.967 651.029 142.724 653.178 142.724C654.838 142.724 656.815 142.235 659.11 141.259C661.454 140.282 663.065 139.452 663.944 138.769C664.823 138.085 665.507 138.305 665.995 139.428L668.412 145.067C668.803 146.044 668.51 146.825 667.533 147.411C665.629 148.534 662.846 149.633 659.184 150.707C655.521 151.732 651.859 152.245 648.197 152.245C643.119 152.245 639.213 150.414 636.479 146.752C633.793 143.09 632.45 137.914 632.45 131.225V83.7637H623.808ZM685.281 151C683.084 151 681.985 149.901 681.985 147.704V138.769C681.985 136.571 683.084 135.473 685.281 135.473H693.484C695.682 135.473 696.78 136.571 696.78 138.769V147.704C696.78 149.901 695.682 151 693.484 151H685.281Z" fill="#D7D7D9"/>
<path d="M42.2473 107.596C58.7564 107.598 75.0558 107.544 91.3546 107.622C102.486 107.675 113.295 115.875 116.591 126.553C121.724 143.189 111.579 159.697 94.4342 162.612C92.9137 162.87 91.3893 163.001 89.8433 163C74.5235 162.986 59.2036 162.992 43.8838 162.988C40.4447 162.988 40.4159 162.957 40.4148 159.416C40.4115 148.603 40.3698 137.79 40.4531 126.978C40.4679 125.055 39.9221 124.282 37.9636 124.013C33.7271 123.43 29.4524 123.518 25.2179 123.031C14.5239 121.803 6.69449 116.34 2.45661 106.449C-1.77215 96.5799 -0.525892 87.0501 6.07509 78.4914C11.7235 71.1677 19.4709 67.9312 28.5452 67.7075C31.8446 67.6262 35.0718 66.9826 38.3448 66.7366C40.0977 66.6048 40.4419 65.5696 40.436 64.0089C40.3945 53.0556 40.4109 42.1022 40.4138 31.1488C40.4146 28.2051 40.5741 28.0312 43.488 28.0291C59.1576 28.0178 74.8274 27.9709 90.4968 28.0269C104.414 28.0767 116.006 38.3457 117.788 52.6156C119.517 66.4527 110.452 78.7288 97.874 82.3115C95.226 83.0657 92.5599 83.4321 89.8146 83.4303C69.3881 83.4169 48.9616 83.4035 28.5352 83.4401C23.2661 83.4495 19.1534 85.6821 16.8642 90.5574C13.1368 98.4955 18.9904 107.414 27.9776 107.573C32.6629 107.656 37.3508 107.593 42.2473 107.596ZM76.8758 147.219C81.2125 147.22 85.5494 147.244 89.8859 147.217C97.0369 147.173 102.132 142.022 102.255 135.119C102.354 129.568 97.1549 123.111 89.8204 123.292C79.4748 123.548 69.1178 123.345 58.7657 123.338C56.1307 123.337 55.8662 123.561 55.8538 126.195C55.825 132.303 55.8261 138.411 55.8322 144.519C55.8347 147.064 55.9952 147.21 58.6196 147.213C64.5651 147.221 70.5106 147.217 76.8758 147.219ZM71.4192 43.7877C67.3636 43.7889 63.3079 43.7872 59.2523 43.7923C56.0771 43.7962 55.8491 44.0106 55.8397 47.2928C55.8228 53.1883 55.8351 59.0838 55.8366 64.9792C55.8373 67.5451 55.9744 67.7 58.581 67.7C69.0697 67.7001 79.5584 67.6934 90.047 67.6688C91.2978 67.6658 92.5509 67.679 93.7784 67.265C99.7073 65.2659 103.056 59.802 102.101 53.6217C101.258 48.1669 96.008 43.84 90.0892 43.8012C84.006 43.7614 77.9224 43.7897 71.4192 43.7877Z" fill="#69008C"/>
<path d="M42.2473 107.596C58.7564 107.598 75.0558 107.544 91.3546 107.622C102.486 107.675 113.295 115.875 116.591 126.553C121.724 143.189 111.579 159.697 94.4342 162.612C92.9137 162.87 91.3893 163.001 89.8433 163C74.5235 162.986 59.2036 162.992 43.8838 162.988C40.4447 162.988 40.4159 162.957 40.4148 159.416C40.4115 148.603 40.3698 137.79 40.4531 126.978C40.4679 125.055 39.9221 124.282 37.9636 124.013C33.7271 123.43 29.4524 123.518 25.2179 123.031C14.5239 121.803 6.69449 116.34 2.45661 106.449C-1.77215 96.5799 -0.525892 87.0501 6.07509 78.4914C11.7235 71.1677 19.4709 67.9312 28.5452 67.7075C31.8446 67.6262 35.0718 66.9826 38.3448 66.7366C40.0977 66.6048 40.4419 65.5696 40.436 64.0089C40.3945 53.0556 40.4109 42.1022 40.4138 31.1488C40.4146 28.2051 40.5741 28.0312 43.488 28.0291C59.1576 28.0178 74.8274 27.9709 90.4968 28.0269C104.414 28.0767 116.006 38.3457 117.788 52.6156C119.517 66.4527 110.452 78.7288 97.874 82.3115C95.226 83.0657 92.5599 83.4321 89.8146 83.4303C69.3881 83.4169 48.9616 83.4035 28.5352 83.4401C23.2661 83.4495 19.1534 85.6821 16.8642 90.5574C13.1368 98.4955 18.9904 107.414 27.9776 107.573C32.6629 107.656 37.3508 107.593 42.2473 107.596ZM76.8758 147.219C81.2125 147.22 85.5494 147.244 89.8859 147.217C97.0369 147.173 102.132 142.022 102.255 135.119C102.354 129.568 97.1549 123.111 89.8204 123.292C79.4748 123.548 69.1178 123.345 58.7657 123.338C56.1307 123.337 55.8662 123.561 55.8538 126.195C55.825 132.303 55.8261 138.411 55.8322 144.519C55.8347 147.064 55.9952 147.21 58.6196 147.213C64.5651 147.221 70.5106 147.217 76.8758 147.219ZM71.4192 43.7877C67.3636 43.7889 63.3079 43.7872 59.2523 43.7923C56.0771 43.7962 55.8491 44.0106 55.8397 47.2928C55.8228 53.1883 55.8351 59.0838 55.8366 64.9792C55.8373 67.5451 55.9744 67.7 58.581 67.7C69.0697 67.7001 79.5584 67.6934 90.047 67.6688C91.2978 67.6658 92.5509 67.679 93.7784 67.265C99.7073 65.2659 103.056 59.802 102.101 53.6217C101.258 48.1669 96.008 43.84 90.0892 43.8012C84.006 43.7614 77.9224 43.7897 71.4192 43.7877Z" fill="#69008C"/>
</svg>
